<svg id="SvgjsSvg1000" xmlns="http://www.w3.org/2000/svg" version="1.1" xmlns:xlink="http://www.w3.org/1999/xlink" xmlns:svgjs="http://svgjs.com/svgjs" width="21" height="16" viewBox="0 0 21 16"><title>E-mail Icon</title><desc>Created with Avocode.</desc><defs id="SvgjsDefs1001"></defs><path id="SvgjsPath1007" d="M531.432 2669.22C531.3240000000001 2669.22 531.222 2669.25 531.1370000000001 2669.31C531.1370000000001 2669.31 522.7790000000001 2676.4 522.7080000000001 2676.45C522.503 2676.6 522.2570000000001 2676.6899999999996 521.993 2676.6899999999996C521.725 2676.6899999999996 521.475 2676.5999999999995 521.2710000000001 2676.4399999999996C521.2030000000001 2676.3899999999994 512.8470000000001 2669.3099999999995 512.8470000000001 2669.3099999999995C512.7620000000001 2669.2499999999995 512.6610000000001 2669.2199999999993 512.5520000000001 2669.2199999999993C512.2420000000002 2669.2199999999993 511.9900000000001 2669.4899999999993 511.9900000000001 2669.8299999999995V2679.6499999999996C511.9900000000001 2680.3999999999996 512.5570000000001 2681.0099999999998 513.2560000000001 2681.0099999999998H530.729C531.428 2681.0099999999998 531.994 2680.3999999999996 531.994 2679.6499999999996V2669.8299999999995C531.994 2669.4899999999993 531.743 2669.2199999999993 531.432 2669.2199999999993ZM521.411 2674.79C521.5759999999999 2674.92 521.78 2675 521.9989999999999 2675C522.2209999999999 2675 522.425 2674.92 522.5909999999999 2674.79L530.6679999999999 2668.11L530.7979999999999 2668C530.8859999999999 2667.89 530.9389999999999 2667.75 530.9389999999999 2667.59C530.9389999999999 2667.26 530.6869999999999 2666.9900000000002 530.3759999999999 2666.9900000000002H513.6239999999999C513.3129999999999 2666.9900000000002 513.0619999999999 2667.26 513.0619999999999 2667.59C513.0619999999999 2667.76 513.1259999999999 2667.92 513.2319999999999 2668.03Z " fill="#65abd0" fill-opacity="1" transform="matrix(1,0,0,1,-511,-2666)"></path></svg>