<svg id="SvgjsSvg1011" xmlns="http://www.w3.org/2000/svg" version="1.1" xmlns:xlink="http://www.w3.org/1999/xlink" xmlns:svgjs="http://svgjs.com/svgjs" width="14" height="12" viewBox="0 0 14 12"><title>Twitter Logo</title><desc>Created with Avocode.</desc><defs id="SvgjsDefs1012"></defs><path id="SvgjsPath1013" d="M1137 3563.3C1136.48 3563.52 1135.93 3563.67 1135.35 3563.73C1135.9399999999998 3563.39 1136.3999999999999 3562.85 1136.61 3562.2C1136.06 3562.52 1135.4399999999998 3562.75 1134.79 3562.87C1134.27 3562.33 1133.52 3561.99 1132.69 3561.99C1131.1100000000001 3561.99 1129.8200000000002 3563.24 1129.8200000000002 3564.77C1129.8200000000002 3564.99 1129.8500000000001 3565.2 1129.89 3565.41C1127.51 3565.29 1125.39 3564.18 1123.97 3562.5C1123.73 3562.91 1123.59 3563.39 1123.59 3563.9C1123.59 3564.86 1124.09 3565.71 1124.86 3566.21C1124.3899999999999 3566.2 1123.9499999999998 3566.07 1123.56 3565.86C1123.56 3565.88 1123.56 3565.8900000000003 1123.56 3565.9C1123.56 3567.2400000000002 1124.55 3568.37 1125.87 3568.62C1125.62 3568.69 1125.37 3568.72 1125.11 3568.72C1124.9199999999998 3568.72 1124.74 3568.7 1124.57 3568.6699999999996C1124.9299999999998 3569.7699999999995 1126 3570.5799999999995 1127.25 3570.5999999999995C1126.27 3571.3399999999992 1125.03 3571.7899999999995 1123.68 3571.7899999999995C1123.45 3571.7899999999995 1123.22 3571.7799999999993 1123 3571.7499999999995C1124.27 3572.5399999999995 1125.78 3572.9999999999995 1127.4 3572.9999999999995C1132.69 3572.9999999999995 1135.5700000000002 3568.7699999999995 1135.5700000000002 3565.0899999999997C1135.5700000000002 3564.97 1135.5700000000002 3564.85 1135.5700000000002 3564.7299999999996C1136.13 3564.3399999999997 1136.6100000000001 3563.8499999999995 1137.0000000000002 3563.2999999999997Z " fill="#383737" fill-opacity="1" transform="matrix(1,0,0,1,-1123,-3561)"></path></svg>